<svg width="54" height="54" viewBox="0 0 54 54" fill="none" xmlns="http://www.w3.org/2000/svg">
<circle cx="27" cy="27" r="27" fill="white"/>
<path d="M34.5 27V33.25C34.5 35.3211 31.1421 37 27 37C22.8579 37 19.5 35.3211 19.5 33.25V27M34.5 27V20.75M34.5 27C34.5 29.0711 31.1421 30.75 27 30.75C22.8579 30.75 19.5 29.0711 19.5 27M19.5 27V20.75M34.5 20.75C34.5 18.6789 31.1421 17 27 17C22.8579 17 19.5 18.6789 19.5 20.75M34.5 20.75C34.5 22.8211 31.1421 24.5 27 24.5C22.8579 24.5 19.5 22.8211 19.5 20.75" stroke="#3E78F7" stroke-width="2" stroke-linecap="round" stroke-linejoin="round"/>
</svg>
