<svg width="54" height="54" viewBox="0 0 54 54" fill="none" xmlns="http://www.w3.org/2000/svg">
<circle cx="27" cy="27" r="27" fill="white"/>
<path d="M34.9584 27C33.9296 26.2074 32.6218 25.7867 31.2798 25.8166H22.6535C22.2602 25.8258 21.8689 25.7619 21.5031 25.6287C21.1373 25.4956 20.8045 25.296 20.5246 25.0419C20.2447 24.7878 20.0234 24.4844 19.8741 24.1499C19.7247 23.8153 19.6504 23.4565 19.6555 23.0949C19.6459 22.9542 19.6459 22.813 19.6555 22.6723C19.7714 22.0262 20.14 21.4412 20.6921 21.0272C21.2441 20.6133 21.9416 20.3987 22.6535 20.4239H31.151C31.8442 20.4234 32.515 20.6491 33.0439 21.0609C33.5728 21.4727 33.9254 22.0438 34.0387 22.6723H36.7977C36.6822 21.3688 36.0372 20.153 34.991 19.2666C33.9448 18.3802 32.574 17.8881 31.151 17.8882H28.245V14H25.9458V17.8882H22.6535C21.2306 17.8881 19.8598 18.3802 18.8136 19.2666C17.7673 20.153 17.1224 21.3688 17.0069 22.6723C16.9977 22.8131 16.9977 22.9542 17.0069 23.0949C17.0069 23.7765 17.1529 24.4513 17.4367 25.081C17.7205 25.7107 18.1364 26.2828 18.6607 26.7647C19.7197 27.738 21.1559 28.2848 22.6535 28.2848H31.3718C31.762 28.2758 32.1502 28.3386 32.5135 28.4697C32.8769 28.6007 33.208 28.7972 33.4874 29.0477C33.7668 29.2982 33.9888 29.5976 34.1404 29.9282C34.2919 30.2588 34.3699 30.6139 34.3698 30.9727C34.3889 31.1639 34.3889 31.3563 34.3698 31.5475C34.2238 32.1423 33.862 32.6738 33.344 33.0547C32.8259 33.4356 32.1823 33.6433 31.5189 33.6437H22.8742C22.2108 33.6433 21.5672 33.4356 21.0492 33.0547C20.5311 32.6738 20.1694 32.1423 20.0233 31.5475H17.246C17.4041 32.8176 18.065 33.99 19.103 34.8411C20.1409 35.6922 21.4833 36.1625 22.8742 36.1625H25.9458V40H28.245V36.1625H31.3718C32.7627 36.1625 34.1051 35.6922 35.143 34.8411C36.181 33.99 36.8419 32.8176 37 31.5475V30.9727C36.9978 30.2134 36.8137 29.4638 36.4609 28.7772C36.108 28.0906 35.5951 27.4839 34.9584 27Z" fill="#3E78F7"/>
</svg>
