<svg width="54" height="54" viewBox="0 0 54 54" fill="none" xmlns="http://www.w3.org/2000/svg">
<circle cx="27" cy="27" r="27" fill="white"/>
<path d="M36.1875 37.1562H16.8125C15.7469 37.1562 14.875 36.2844 14.875 35.2188V22.625C14.875 21.5594 15.7469 20.6875 16.8125 20.6875H36.1875C37.2531 20.6875 38.125 21.5594 38.125 22.625V35.2188C38.125 36.2844 37.2531 37.1562 36.1875 37.1562Z" stroke="#3E78F7" stroke-width="2" stroke-miterlimit="10" stroke-linecap="round" stroke-linejoin="round"/>
<path d="M32.8938 28.4375H20.1062C17.2 28.4375 14.875 26.1125 14.875 23.2063V22.625C14.875 21.5594 15.7469 20.6875 16.8125 20.6875H36.1875C37.2531 20.6875 38.125 21.5594 38.125 22.625V23.2063C38.125 26.1125 35.8 28.4375 32.8938 28.4375Z" stroke="#3E78F7" stroke-width="2" stroke-miterlimit="10" stroke-linecap="round" stroke-linejoin="round"/>
<path d="M20.6875 30.375V28.4375" stroke="#3E78F7" stroke-width="2" stroke-miterlimit="10" stroke-linecap="round" stroke-linejoin="round"/>
<path d="M32.3125 30.375V28.4375" stroke="#3E78F7" stroke-width="2" stroke-miterlimit="10" stroke-linecap="round" stroke-linejoin="round"/>
<path d="M20.0095 20.6875C20.8814 17.8781 23.4001 15.8438 26.5001 15.8438C29.6001 15.8438 32.1189 17.8781 32.9908 20.6875" stroke="#3E78F7" stroke-width="2" stroke-miterlimit="10" stroke-linecap="round" stroke-linejoin="round"/>
</svg>
