<svg width="28" height="28" viewBox="0 0 28 28" fill="none" xmlns="http://www.w3.org/2000/svg">
<path d="M7 25.6666H21C21.9283 25.6666 22.8185 25.2979 23.4749 24.6415C24.1313 23.9851 24.5 23.0949 24.5 22.1666V8.16665C24.5 7.54781 24.2542 6.95432 23.8166 6.51673C23.379 6.07915 22.7855 5.83331 22.1667 5.83331H19.8333V3.49998C19.8333 3.19056 19.7104 2.89381 19.4916 2.67502C19.2728 2.45623 18.9761 2.33331 18.6667 2.33331C18.3572 2.33331 18.0605 2.45623 17.8417 2.67502C17.6229 2.89381 17.5 3.19056 17.5 3.49998V5.83331H10.5V3.49998C10.5 3.19056 10.3771 2.89381 10.1583 2.67502C9.9395 2.45623 9.64275 2.33331 9.33333 2.33331C9.02391 2.33331 8.72717 2.45623 8.50838 2.67502C8.28958 2.89381 8.16667 3.19056 8.16667 3.49998V5.83331H5.83333C5.21449 5.83331 4.621 6.07915 4.18342 6.51673C3.74583 6.95432 3.5 7.54781 3.5 8.16665V22.1666C3.5 23.0949 3.86875 23.9851 4.52513 24.6415C5.1815 25.2979 6.07174 25.6666 7 25.6666ZM5.83333 14.5833C5.83333 14.4286 5.89479 14.2802 6.00419 14.1708C6.11358 14.0614 6.26196 14 6.41667 14H21.5833C21.738 14 21.8864 14.0614 21.9958 14.1708C22.1052 14.2802 22.1667 14.4286 22.1667 14.5833V22.1666C22.1667 22.4761 22.0438 22.7728 21.825 22.9916C21.6062 23.2104 21.3094 23.3333 21 23.3333H7C6.69058 23.3333 6.39383 23.2104 6.17504 22.9916C5.95625 22.7728 5.83333 22.4761 5.83333 22.1666V14.5833Z" fill="#7D7D7D"/>
</svg>
